/* XPM */
static char *aW1hZ2UrJTI4MiUyOQ__[] = {
/* columns rows colors chars-per-pixel */
"64 64 208 2 ",
"   c #3C341C",
".  c #353226",
"X  c #3C3724",
"o  c #39362E",
"O  c #3B392C",
"+  c #3E3B32",
"@  c #423D34",
"#  c #433F3D",
"$  c #3F433B",
"%  c #49462D",
"&  c #4E4C2C",
"*  c #544E2C",
"=  c #5A562D",
"-  c #444134",
";  c #494535",
":  c #4D4935",
">  c #45423B",
",  c #4A453D",
"<  c #4B493C",
"1  c #544C34",
"2  c #504C3D",
"3  c #5B5333",
"4  c #5C5837",
"5  c #54513C",
"6  c #665B35",
"7  c #625B39",
"8  c #6B612E",
"9  c #7B7028",
"0  c #6B6333",
"q  c #6C6637",
"w  c #7B6E33",
"e  c #776838",
"r  c #7D7136",
"t  c #4C3F43",
"y  c #454342",
"u  c #4A4642",
"i  c #4C4B44",
"p  c #4E4C49",
"a  c #514D44",
"s  c #554C47",
"d  c #534E4A",
"f  c #4F5148",
"g  c #535146",
"h  c #5B5544",
"j  c #54524C",
"k  c #5A554C",
"l  c #565A4D",
"z  c #5B584D",
"x  c #4F4F50",
"c  c #555351",
"v  c #595653",
"b  c #5C5A53",
"n  c #555A58",
"m  c #5D5C59",
"M  c #605A46",
"N  c #625B55",
"B  c #615E5A",
"V  c #5E6159",
"C  c #676456",
"Z  c #64615C",
"A  c #6A655D",
"S  c #736859",
"D  c #7A6E5C",
"F  c #7D7254",
"G  c #5E6261",
"H  c #656563",
"J  c #6A6562",
"K  c #6B6A64",
"L  c #686867",
"P  c #6E6D6C",
"I  c #736C64",
"U  c #766D66",
"Y  c #7C7363",
"T  c #72726C",
"R  c #736F71",
"E  c #787777",
"W  c #84792F",
"Q  c #8F7E29",
"!  c #827734",
"~  c #827838",
"^  c #877A48",
"/  c #817565",
"(  c #887B66",
")  c #81766A",
"_  c #867B6C",
"`  c #897B6D",
"'  c #867E73",
"]  c #99892B",
"[  c #96843B",
"{  c #AA952C",
"}  c #A38E3B",
"|  c #A89936",
" . c #B49F31",
".. c #B9A32C",
"X. c #BBA734",
"o. c #DFBE0F",
"O. c #C2A41D",
"+. c #D8BD1E",
"@. c #E0BF10",
"#. c #C8AC2C",
"$. c #CEB229",
"%. c #DCBD24",
"&. c #D2B628",
"*. c #D5BA2E",
"=. c #D9BA28",
"-. c #CDB637",
";. c #D3BB34",
":. c #E1BE23",
">. c #DFC21E",
",. c #E3C313",
"<. c #E4C41D",
"1. c #E5C81E",
"2. c #E9C91E",
"3. c #DFC224",
"4. c #DEC229",
"5. c #DEC232",
"6. c #DFC738",
"7. c #E4C525",
"8. c #E8C725",
"9. c #E5C825",
"0. c #E9C926",
"q. c #E4C52B",
"w. c #E8C72A",
"e. c #E6C92B",
"r. c #E9C92B",
"t. c #E4C632",
"y. c #EBC733",
"u. c #E6C933",
"i. c #E9CB35",
"p. c #EECF35",
"a. c #E4C53B",
"s. c #E6CA3A",
"d. c #E7CA3A",
"f. c #E6CA3C",
"g. c #E9CA39",
"h. c #E9CA3A",
"j. c #EACC39",
"k. c #E9CC3A",
"l. c #EACD3A",
"z. c #E9CB3D",
"x. c #E8CC3C",
"c. c #EACE3D",
"v. c #ECD234",
"b. c #ECD13C",
"n. c #F1D339",
"m. c #938647",
"M. c #9B8B4A",
"N. c #9D914D",
"B. c #968A5C",
"V. c #A9944B",
"C. c #AB9A49",
"Z. c #B4A14C",
"A. c #BAA653",
"S. c #8B816B",
"D. c #99896A",
"F. c #8D8374",
"G. c #85827B",
"H. c #968977",
"J. c #A08E62",
"K. c #A9986A",
"L. c #A49274",
"P. c #A89878",
"I. c #B09E75",
"U. c #BDAA6B",
"Y. c #B6A474",
"T. c #BAA877",
"R. c #C2AC44",
"E. c #CBBA4B",
"W. c #D4BD47",
"Q. c #C7A76B",
"!. c #C9B47A",
"~. c #D0BD76",
"^. c #DAC445",
"/. c #DAC449",
"(. c #E6CB43",
"). c #EACC42",
"_. c #E4CB4B",
"`. c #E9CB49",
"'. c #EDD144",
"]. c #EDD24C",
"[. c #F1D442",
"{. c #F1D54E",
"}. c #F4D94D",
"|. c #EDD254",
" X c #F4DB54",
".X c #F6DB55",
"XX c #F4D95B",
"oX c #F9DC5E",
"OX c #FBE15B",
"+X c #D9C577",
"@X c #EED564",
"#X c #EFD76B",
"$X c #F5DB63",
"%X c #F9DC65",
"&X c #F4D96A",
"*X c #E3CE7B",
"=X c #ECD573",
"-X c #EBD478",
";X c #F1D872",
":X c #FDE177",
">X c #7E7E84",
",X c #7F8283",
"<X c #828888",
"1X c #9A8C82",
"2X c #A79A84",
"3X c #AD9B90",
"4X c #B3A38C",
"5X c #DAC781",
/* pixels */
"q.t.u.q.i e.u.u.t.d.d.u.d.d.u.6.e.e.e.e.0.e.e.e.r.2.0.0.8.8.q.e.r.e.r.q.k q.t.q.q.q.q.y.q.q.y.^ q.w.t.q.q.q.t.t.q.w.r.w.q.q.q.q.",
"B B H B V c m b v k B b v m G m H T K T K A Z B B c k Z B H A Z L B v j z d b Z v v A B J B N v K Z P J I K I Z J U C I U J J J ",
"g.g.i.g.k d.d.d.d.f.d.d.f.d.c.l.g.c.l.c.c.d.i.d.l.b.z.l.g.l.c.g.z.d.l.g.d f.g.g.z.d.g.g.i.g.g.c.i.i.i.g.g.g.g.z.).g.j.i.g.g.g.g.",
"_.c.l.g.k d.d.l.z.d.d.d.f.i.c.v.l.c.b.c.b.d.b.l.l.'.c.c.c.c.z.g.g.t.l.l.d c.l.l.c.z.g.g.g.g.l.{.z.z.z.z.g.z.z.c.z.i.l.j.g.g.z.l.",
"z.g.c.l.B i.i.i.l.g.i.z.g.g.i.b.v.b.b.b.u.Q.v.l.v.[.b.i.b.b.j.i.y.g.i.l.k g.l.).z.g.l.d.j.j.j.[.i.i.i.u.a.z.g.).j.j.i.n.c.i.`.g.",
"i.l.i.i.v i.i.i.i.u.i.u.i.i.i.r.l.i.i.i.d.i.i.i.v.).d.l.l.i.l.i.i.i.i.i.J g.l.i.i.g.i.g.i.j.y.i.i.i.g.g.i.i.d.g.i.y.i.r.i.i.i.i.",
"i.l.g.g.v g.g.d.g.d.i.d.i.i.i.l.i.v.l.i.i.i.i.i.i.[.i.i.l.l.d.i.i.i.i.g.k l.i.i.g.i.u.u.i.u.u.c.g.i.i.y.i.i.f.d.g.g.i.i.i.i.y.g.",
"l.g.c.l.k g.g.z.g.z.c.f.b.i.i.v.b.b.b.v.g.l.i.i.j.'.l.b.c.l.b.l.l.l.l.g.J i.l.l.y.g.g.g.g.l.u.[.j.i.i.j.g.z.z.z.j.i.l.i.g.l.g.l.",
"l f c j c p k > u i i i d c , H b i a j z g b l z m b Z Z b b v b B C b V k k j a d k v l j T <XL >X>XE ,X,XR m <X' b K J b V l ",
"c.d.d.g.b u.d.u.t.u.d.e.d.u.u.u.d.c.l.d.d.d.u.d.i._.i.i.d.d.d.d.i.i.i.i.N i.q.i.u.u.t.i.y.d.i.n.g.y.g.g.z.d.l.g.i.j.i.i.i.i.g.g.",
"l.l.c.l.j i.d.d.d.e.i.u.r.i.i.i.b.l.b.d.u.d.i.l.l._.l.i.v.i.l.l.l.i.g.i.z l.d.g.g.g.g.g.d.d.i.b.u.g.g.g.z.z.g.g.g.i.j.i.i.d.i.l.",
"g.z.l.(.m l.i.u.i.i.i.i.l.i.g.l.i.b.b.v.i.v.l.i.i._.l.g.l.b.l.v.l.i.i.i.d i.y.t.g.t.i.t.i.u.i.v.y.i.g.z.u.g.f.f.g.y.j.i.i.a.i.d.",
"g.r.i.i.k q.q.q.q.q.q.q.r.u.e.i.l.i.u.r.i.u.i.r.i.^.u.i.i.i.r.r.r.i.i.u.B i.i.u.d.u.t.q.q.i.e.d.r.r.r.q.r.q.i.r.r.r.r.r.r.i.i.i.",
"u.i.i.d.v t.t.u.t.t.t.a.u.u.r.i.i.l.b.d.i.i.i.i.i./.d.v.d.i.i.d.i.i.u.i.d y.i.t.i.u.y.y.i.y.i.(.i.y.z.i.i.i.u.i.i.i.u.i.i.i.u.d.",
"i.g.i.g.k u.u.u.u.u.t.u.u.d.u.v.c.l.l.g.l.l.l.g.l./.i.v.i.z.i.i.i.i.i.i.k l.g.i.u.i.u.y.d.y.i.).i.y.u.u.t.i.i.i.i.i.i.i.i.d.i.i.",
"d d , d d @ i < d i , l g g i > < k , a i , i k g g z z k z h k a k z - u d s a a ; ; u 2 u , t k v u d i > k g g Z C K Z k g j ",
"d.u.t.i.j d.t.d.t.a.d.t.d.q.i.i.d.d.l.d.u.i.d.q.i.(.i.i.i.r.d.i.y.g.u.u.s u.u.y.y.z.g.t.g.y.r.r.i.q.t.t.t.t.y.t.u.i.u.q.y.t.t.u.",
"d.i.d.u.d d.i.d.u.d.u.u.u.d.i.u.l.v.i.i.i.i.i.i.i.^.i.l.i.l.i.g.i.g.l.i.u y.u.u.t.g.u.i.i.i.i.r.t.i.i.i.i.t.q.t.u.q.r.y.u.i.r.i.",
"i.d.i.z.j i.i.g.l.d.d.d.i.u.i.i.v.i.l.l.i.i.i.u.i./.i.i.i.i.l.i.i.g.g.i.u u.i.u.u.g.u.u.i.d.y.i.u.d.t.i.i.t.y.d.i.i.r.i.y.u.d.(.",
"7.q.7.q.p e.u.t.e.e.u.).).{.|.g.b.'.'.'.{.@X X{. X#X:X:X%X:X%XoX%XoX%X%Xs $XXX{.{.`.`.`.z.t.).].g.t.t.q.q.3.q.q.q.8.w.8.8.q.q.t.",
"t.q.q.q.i u.u.t.u.u.t.e.u.u.e.r.r.r.q.q.q.y.r.q.q.).r.e.q.i.q.q.r.q.q.q.u q.y.q.q.q.q.q.w.q.:.y.q.u.t.q.u.q.q.q.w.w.q.t.q.q.q.t.",
"t.q.t.t.n u.u.d.i.e.d.e.u.e.u.8.i.e.i.d.i.r.r.i.i.).r.r.r.q.i.t.q.y.q.r.s y.q.y.y.q.q.t.q.q.q.n.r.u.u.u.e.y.q.d.q.r.q.y.t.t.q.q.",
"@ > @ @ + + O . + o . o @ X   % 3 7 7 q 0 0 e w w r } } [ [ [ ~ w r e 6 u 0 8 6 3 6 3 * 3 4 h : h k < , > @ @ @ @ , @ @ # @ O O ",
"t.q.q.t.p r.q.u.e.u.u.q.u.d.u.1.e.e.e.r.q.r.q.r.8.i.8.8.8.w.8.q.q.0.r.8.s w.w.y.:.q.t.:.q.q.w.r.q.q.q.7.q.q.q.q.q.8.7.q.8.q.q.q.",
"q.t.q.t.c u.q.i.e.q.u.u.u.u.u.0.r.e.e.e.e.w.w.8.w.u.0.0.8.q.8.8.w.w.q.w.l w.w.q.w.:.y.7.t.q.q.i.q.q.q.q.w.q.:.q.q.8.7.q.w.7.q.q.",
"q.q.q.q.l r.u.t.u.d.t.d.d.6.u.1.r.0.0.e.0.0.w.0.w.z.0.8.8.q.w.e.r.q.q.q.j q.q.q.t.q.q.y.q.t.q.e.q.q.y.q.q.q.y.q.q.q.8.w.q.q.t.q.",
"~.!.~.!.u D.L.H.F.S._ G.G.S.E !.U.T.I.J.D.D.S.S./ I Y Y _ F./ / ) / Y S c D ( D.B.J.K.T.T.Q.U.+X*X-X-X-X-X;X;X=X;X&X*X*X*X5X+X5X",
"i.q.y.q.d q.q.q.e.e.u.e.u.e.e.0.8.r.e.e.e.q.t.e.e.e.8.q.q.e.0.q.w.q.8.7.s 8.q.q.7.q.8.:.7.7.7.r.q.q.q.q.q.q.q.q.:.8.q.q.q.q.q.y.",
"i.r.e.r.j e.q.y.e.e.e.t.d.u.u.0.r.r.e.e.q.r.e.u.r.i.e.e.q.r.q.8.q.w.q.w.i q.q.q.y.w.q.w.7.7.e.l.w.q.t.q.q.q.q.q.q.8.r.r.r.y.q.i.",
"#.X.X..., ;.%.:.q.q.q.q.u.4.4.$.=.%.%.7.7.7.4.q.0.c.7.8.9.7.7.7.7.7.7.:., 7.7.:.:.:.%.=.=.=.$.X.X... .{ { ] ] ] Q 9 { { .. .#.X.",
"q.t.q.e.c q.7.q.q.q.q.e.u.u.9.9.8.q.0.q.q.q.8.8.q.0.q.e.w.r.8.8.8.7.7.8., q.q.q.:.q.w.w.w.7.7.q.7.w.w.w.e.q.q.e.q.q.e.e.e.q.t.q.",
"q.q.3.q., q.q.q.5.q.5.q.u.4.u.1.q.e.e.0.8.8.8.7.8.e.0.8.8.8.7.e.q.:.q.8.k 7.7.q.q.q.:.q.:.:.8.q.q.w.7.7.q.q.u.u.q.r.e.e.i.e.t.7.",
"q.q.q.e.u q.q.q.q.u.u.t.u.e.u.8.r.e.e.7.r.e.q.q.r.r.e.e.e.r.r.q.w.w.q.0.a q.q.q.q.q.q.q.q.7.w.y.w.q.q.q.q.t.q.t.q.t.q.e.e.i.q.q.",
"Z m H Z B n m H b l Z V H m K C B b N Z B L P E K K l A K A K K K B b s > v b b v v v c B Z B N K J B Z P H Z B J I C C Z z k A ",
"q.7.q.q.z q.7.7.q.q.q.4.4.7.q.9.0.0.e.e.q.q.q.7.8.9.7.8.9.7.q.7.q.q.q.q.s q.q.q.q.7.q.7.q.8.7.R.7.7.w.q.7.q.q.q.q.q.7.7.3.7.7.q.",
"t.q.q.q.l 7.7.7.4.u.u.4.e.e.e.1.e.e.e.q.8.0.9.9.8.0.8.0.q.q.e.q.q.q.q.q.s q.q.t.t.:.q.7.q.:.w.R.8.q.q.q.q.4.t.e.q.e.7.7.7.q.q.q.",
"q.e.e.4.u q.q.7.q.e.q.e.q.t.q.7.9.e.0.8.e.0.0.0.r.0.r.8.q.q.q.q.q.r.w.8.d w.8.r.w.8.8.w.8.8.0.Z.7.7.q.q.4.q.q.4.4.q.9.7.7.q.q.q.",
"q.7.7.7.u 7.7.7.3.3.7.3.7.<.1.e.9.e.9.4.7.q.7.7.<.7.8.8.7.9.9.8.7.<.<.<.p 8.:.<.<.<.8.<.7.2.<.V.7.7.7.q.7.7.7.:.7.<.1.7.7.7.7.4.",
":.7.7.7.x q.7.4.q.4.3.7.4.q.4.0.9.e.0.9.7.q.7.8.8.9.0.0.q.7.7.7.7.7.7.7.d 7.8.:.7.7.7.8.7.7.7.C.7.7.7.:.3.3.7.7.7.7.8.7.3.t.7.3.",
"7.q.7.7.p 7.q.7.7.q.q.t.q.7.e.9.0.9.e.e.q.9.e.7.8.0.7.9.q.8.8.9.8.8.8.8.> 7.8.7.3.8.q.q.q.q.q.Z.7.q.q.7.q.7.3.7.7.8.e.7.q.q.7.7.",
"s f p + y - @ , u $ y < x j i l x V m m j c b v l l a a k d i l d i j p > u > i ; < , u u j > p j m g j c j B c d b k z p i g i ",
":.7.7.:.z 7.7.7.q.4.t.4.e.4.e.r.9.9.t.7.9.8.e.e.7.7.9.7.7.8.9.4.q.8.7.r.i 7.8.q.4.7.4.7.7.:.7.^ q.7.q.:.7.7.:.:.7.7.7.7.7.3.7.7.",
"7.q.7.7.d q.7.q.q.q.5.t.e.7.q.r.e.e.0.e.e.e.e.e.0.q.0.q.7.7.9.e.e.e.e.q.u 8.7.q.q.7.7.7.7.7.8.^ 7.7.7.7.:.7.:.q.:.7.7.$.q.7.a.7.",
"7.7.7.q.2 7.7.3.4.u.t.e.6.q.q.9.0.7.8.9.8.e.i.t.e.e.0.7.7.e.q.e.4.e.e.e.y 0.e.0.q.q.q.8.8.8.8.V.q.7.8.7.q.:.:.7.7.9.7.7.e.q.q.q.",
",.9.7.1.b <.<.9.9.t.e.u.e.9.9.6.9.1.1.7.<.1.>.<.<.<.<.8.9.0.e.9.e.9.q.0.y 3.q.7.7.7.3.7.7.@.:.7 @.@.7.<.%.@.@.o.,.o.,.<.<.<.,.1.",
"7.9.4.q.m q.7.7.q.q.4.e.e.4.9.6.9.9.7.0.3.7.7.9.7.9.8.8.7.7.7.9.7.e.q.7.u 7.9.q.7.7.7.7.t.7.7.e q.:.7.:.7.%.:.7.7.<.2.7.7.7.7.7.",
"7.e.q.q.b q.t.q.q.4.e.e.4.e.0.i.e.e.r.e.7.q.7.9.9.<.9.0.8.7.e.9.9.9.e.0.p e.e.e.t.q.8.8.7.q.7.^ 8.8.7.:.3.7.7.:.@.7.9.7.7.q.7.e.",
"> < h j 2 p p > > - $ - > > u a z l k k b h z A k f i i i i i - i f i $ + o > O > O + O + + - o c # u i t i v c k u h i u b < i ",
"4.7.7.3.H 7.q.7.3.3.:.q.%.%.7.^.9.4.e.4.9.3.9.3.9.1.1.9.9.4.9.7.7.7.7.7.y 1.7.7.<.7.7.7.4.1.1.F :.7.7.:.7.7.7.4.7.9.1.7.>.<.7.3.",
"0.7.1.9.B 7.7.t.7.7.7.7.7.7.3.^.9.4.e.9.e.9.3.9.9.1.1.3.9.9.7.9.7.7.1.7.i 7.7.1.7.7.7.7.7.7.7.^ 8.7.7.8.7.3.7.e.9.>.1.1.9.1.<.1.",
"4.e.e.7.b 8.7.7.q.7.7.q.4.e.8./.9.e.9.9.3.3.3.1.9.r.9.9.9.9.9.0.9.<.<.0.a 8.9.4.>.7.7.9.7.e.9.m.9.7.7.q.9.e.7.q.9.9.1.1.1.1.7.7.",
"'.'.{.'.n b.l.b.a.(.t.q.e.4.r.E.e.u.r.u.v.v.[.[.}. X@XXX&X;X;X-X=X@X$XXXl  X{.{.{. X X.X XOXoXC.1.0.0.9.9.9.0.e.r.b.v.r.u.n.i.v.",
"9.>.<.<.f 7.7.3.7.7.:.7.7.q.3.E.e.e.9.9.9.4.7.9.9.1.1.4.7.7.9.3.0.0.7.q.d 7.8.7.7.4.7.7.7.3.7.C.3.7.4.7.3.>.3.<.1.1.1.>.>.1.>.1.",
"1.1.<.4.v 1.7.7.q.q.q.7.9.7.7.E.e.e.e.e.u.e.9.9.3.1.1.9.7.7.3.9.7.7.7.0.p q.q.e.7.7.7.7.7.7.9.C.9.9.0.9.1.9.1.<.>.1.1.9.9.1.3.1.",
"q 0 8 8 > = 3 & % ; - O O O O - 5 5 4 7 q q q r r r [ | | | |  .| | { | p 9 W W W ~ ! 9 r ! r . % % % % < < g 1 = * * 4 = = 0 0 ",
"9.1.>.7.f q.7.3.7.3.4.7.7.4.7.Z.9.9.9.9.9.9.9.9.0.7.9.9.3.9.0.9.e.9.7.7.p <.1.<.<.<.7.0.7.>.3.m.7.3.7.7.7.<.<.<.7.,.,.<.1.<.1.1.",
"<.<.4.q.m 7.3.t.q.3.%.%.t.7.q.Z.9.9.9.9.e.9.e.r.e.e.7.0.7.7.7.9.q.9.q.9.u 9.7.<.7.9.7.7.e.4.7.M.@.<.8.:.7.<.:.7.3.1.,.<.<.<.<.:.",
"7.7.7.7.G 7.7.7.q.4.q.q.t.%.t.A.9.9.9.9.3.u.6.9.4.9.0.0.t._.e.7.7.9.9.9.i 7.9.<.7.7.7.9.e.3.q.M.8.7.7.q.7.:.7.7.7.<.<.<.<.7.<.7.",
"2XH.H.H.K L.P.2XL.L.L.P.L.P.H.F.I.Y.T.I.K.T.T.4XI.P.' F.F.F.H.S.Y D Y _ K D D I S Y Y D D U A T H.` ` ) ) 1XF._ ' 2X3X3X2XP.4X2X",
">.7.3.3.G 4.%.7.3.3.7.4.7.4.q.N.9.9.9.9.9.9.3.9.9.9.1.a.9.4.3.e.8.9.4.9.j <.<.<.<.1.4.4.3.e.9.M 7.:.7.:.7.@.3.7.7.7.7.<.9.%.7.7.",
"7.q.7.3.H 7.4.7.4.4.4.e.4.q.q.B.9.e.9.4.9.9.9.8.9.4.9.7.7.9.7.e.5.e.q.7.p 9.9.1.7.7.7.q.q.8.w.h 7.@.:.q.:.:.7.:.<.7.<.<.<.7.7.<.",
"3.4.%.%.n ;.&.$.;.*.;.;.-.-.-.B.5.t.5.6.7.3.>.>.7.4.7.7.7.7.3.3.6.e.9.7.i e.1.4.1.7.q.7.4.9.e.2 :.%.:.:.:.:.%.:.%.+.%.+.%.%.O.>.",
"q.q.q.q.b e.e.e.r.r.u.u.d.t.u.W.e.r.e.e.e.e.8.e.0.1.9.<.7.8.8.8.8.7.8.q.@ 8.q.q.q.t.q.q.0.q.7.M.y.:.g.t.q.q.y.:.q.8.:.8.q.q.q.q.",
"t.t.e.t.g d.e.u.e.u.u.u.u.t.t.^.r.r.e.e.q.8.r.0.8.2.0.0.7.8.q.8.0.q.8.q.m w.q.q.q.q.q.q.q.e.y.m.t.q.q.q.q.q.:.w.q.w.w.w.w.q.q.q."
};
