/* XPM */
static char *cb32b97938394f46b5d49fb00b16743dP8CVKBnoze7s8Ibl[] = {
/* columns rows colors chars-per-pixel */
"63 63 211 2 ",
"   c #403C32",
".  c #46433D",
"X  c #49453C",
"o  c #4D493D",
"O  c #534F3B",
"+  c #575337",
"@  c #5A553D",
"#  c #5E5A3B",
"$  c #655A28",
"%  c #695F2B",
"&  c #655D35",
"*  c #6D622E",
"=  c #72642F",
"-  c #73682B",
";  c #6D6332",
":  c #6B653B",
">  c #6C673C",
",  c #716533",
"<  c #746934",
"1  c #7A6C35",
"2  c #736738",
"3  c #756B3A",
"4  c #7A6E3B",
"5  c #7D7135",
"6  c #7D723E",
"7  c #474440",
"8  c #494641",
"9  c #4D4A43",
"0  c #4F4C4A",
"q  c #524D44",
"w  c #514E49",
"e  c #555145",
"r  c #595446",
"t  c #5D5942",
"y  c #55524B",
"u  c #5A554C",
"i  c #5C594D",
"p  c #565551",
"a  c #5A5652",
"s  c #5D5A53",
"d  c #625D44",
"f  c #60574D",
"g  c #635D4B",
"h  c #625D53",
"j  c #635E5A",
"k  c #6C6643",
"l  c #6A6444",
"z  c #6C654A",
"x  c #6E694B",
"c  c #756D41",
"v  c #7C7343",
"b  c #646155",
"n  c #6B6354",
"m  c #65625B",
"M  c #6B655C",
"N  c #6D695B",
"B  c #746C59",
"V  c #746D5E",
"C  c #797357",
"Z  c #666561",
"A  c #696661",
"S  c #6C6962",
"D  c #726C64",
"F  c #796E63",
"G  c #726D69",
"H  c #7D7463",
"J  c #78746C",
"K  c #7C7A73",
"L  c #83742D",
"P  c #837734",
"I  c #8B7A34",
"U  c #83753C",
"Y  c #8E7E3A",
"T  c #837745",
"R  c #807664",
"E  c #847A66",
"W  c #887E65",
"Q  c #827A6A",
"!  c #9C8A2B",
"~  c #8D803B",
"^  c #92823B",
"/  c #9D8B3B",
"(  c #A4922C",
")  c #B49C2D",
"_  c #A08E3D",
"`  c #A4903A",
"'  c #A9973D",
"]  c #AE9A3F",
"[  c #BCA52B",
"{  c #BCA639",
"}  c #DABC1F",
"|  c #C4AB2E",
" . c #C8AD29",
".. c #CEB126",
"X. c #CDB22D",
"o. c #D4B525",
"O. c #D8B726",
"+. c #D7BA25",
"@. c #DBBC25",
"#. c #D2B62C",
"$. c #D5BA2C",
"%. c #DBBD2B",
"&. c #C1A733",
"*. c #C2AA33",
"=. c #C3AC3C",
"-. c #CDB333",
";. c #C6B03D",
":. c #CCB43A",
">. c #CFB83A",
",. c #D1B632",
"<. c #D5BB34",
"1. c #D9BD33",
"2. c #D1B639",
"3. c #D4BB3B",
"4. c #DDBE39",
"5. c #E1C115",
"6. c #E3C41D",
"7. c #DEC125",
"8. c #DEC22B",
"9. c #DCC134",
"0. c #D7C13B",
"q. c #DDC13A",
"w. c #E4C524",
"e. c #E8C625",
"r. c #E5C826",
"t. c #E8C826",
"y. c #E4C52B",
"u. c #E8C72B",
"i. c #E6C92B",
"p. c #E8C92B",
"a. c #E5C632",
"s. c #E6C933",
"d. c #E9CB35",
"f. c #E3C63C",
"g. c #E6C93B",
"h. c #E7CA3C",
"j. c #E9CB39",
"k. c #E9CA3A",
"l. c #EACC39",
"z. c #E8CC3A",
"x. c #E9CB3D",
"c. c #EACD3D",
"v. c #EBD03A",
"b. c #968A42",
"n. c #9C8D44",
"m. c #998A49",
"M. c #9D9044",
"N. c #9E914B",
"B. c #8C805D",
"V. c #9A8E53",
"C. c #9E9157",
"Z. c #A18F45",
"A. c #A29344",
"S. c #A89544",
"D. c #AD9B45",
"F. c #A3954C",
"G. c #A89649",
"H. c #A5994C",
"J. c #AD9A4C",
"K. c #B39E45",
"L. c #B09B4A",
"P. c #A49553",
"I. c #A69954",
"U. c #AB9C54",
"Y. c #A3965B",
"T. c #A69A5E",
"R. c #A99B5C",
"E. c #B09D52",
"W. c #B9A343",
"Q. c #B9A644",
"!. c #8D826A",
"~. c #82817C",
"^. c #A69862",
"/. c #AC9D63",
"(. c #A99868",
"). c #B8A563",
"_. c #C3AC42",
"`. c #C1AD4D",
"'. c #CCB442",
"]. c #CEB846",
"[. c #D4B647",
"{. c #D3BA44",
"}. c #D9BF40",
"|. c #D8BF5F",
" X c #CCB665",
".X c #D2BC67",
"XX c #D0B968",
"oX c #CBB773",
"OX c #DAC242",
"+X c #E4C841",
"@X c #EBCD42",
"#X c #E8CB4B",
"$X c #EDD145",
"%X c #EDD34A",
"&X c #F1D74E",
"*X c #E0C75D",
"=X c #E4CD5E",
"-X c #EED553",
";X c #E7D15E",
":X c #EDD35D",
">X c #F1D653",
",X c #F0D55B",
"<X c #F0D85A",
"1X c #DCC467",
"2X c #E6CD64",
"3X c #E8CF63",
"4X c #E4CC6C",
"5X c #ECD463",
"6X c #EED56B",
"7X c #F1D565",
"8X c #888887",
/* pixels */
"y.y.p.y.n s.s.a.d.s.s.s.h.g.s./ p.p.p.p.p.r.p.t.t.-.p.r.t.e.y.u.p.p.p.p.a t.y.y.y.a.y.s.a.u.a.Y a.u.a.u.u.a.u.8.t.u.u.u.u.y.y.",
"H H H V s h n n h f b h h j j h G G G G G G N M M m n N N D D V M m s s a h B V M B V F F M B h D D F F F F R R E E !.!.!.W W ",
"j.z.z.z.y z.g.g.g.g.s.z.g.g.x.`.c.c.l.c.z.x.g.v.h._.c.z.z.z.x.j.z.j.l.j.u j.x.x.j.j.j.j.j.d.j.K.x.a.j.j.j.x.x.f.@X{.l.s.x.j.j.",
"x.x.z.z.u g.z.z.x.z.x.z.g.d.z.`.c.v.c.c.v.z.v.c.c.;.v.$Xv.x.x.j.j.g.l.z.s z.x.z.c.x.j.j.j.j.l.L.x.x.x.x.j.j.j.@Xl.{.l.l.j.j.j.",
"2.3.2.2.p 3.3.3.3.3.3.3.<.0.0.Q.v.c.+Xz.z.].g.g.z.Q.f.9.f.q.q.0.9.4.f.4.a f.4.4.4.4.4.4.4.4.4.D.a.a.a.4.4.4.{.3.2._.'.2.2.:.{.",
"d.z.l.l.u d.d.d.s.j.z.d.s.v.s.OXz.z.z.d.d.z.d.d.d.=.l.v.z.d.s.l.d.d.d.d.h d.d.l.x.j.j.s.d.j.d.K.s.d.j.d.x.x.j.j.z.:.s.s.s.d.s.",
"d.z.z.z.u j.j.j.z.d.z.d.z.d.s.].d.v.d.d.d.d.d.d.v.*.l.l.v.z.l.l.d.l.s.l.u l.l.s.j.s.s.s.d.d.d.K.x.s.a.x.j.j.j.x.l.'.d.d.d.d.z.",
"j.z.z.c.a z.j.j.h.h.j.z.v.d.v.].v.v.v.v.v.v.v.d.v._.z.v.z.z.z.v.l.l.l.l.b l.l.l.d.j.c.j.j.j.d.D.l.j.j.d.j.x.j.x.l.{.d.d.l.z.z.",
"b i i u w s u y r q e y i u e h s y u i h i h i i b m m N N i s n A V j h h f r r h f h h u Q 8XJ ~.8XQ J Q K j Q K M A A m N ",
"x.z.z.v.y s.s.s.s.s.s.s.s.s.s.OXv.v.g.g.d.s.g.d.v._.d.l.d.g.d.d.d.d.a.d.h d.d.d.a.s.a.a.a.f.k.W.s.s.j.@Xx.j.j.j.@X[.d.d.d.s.d.",
"z.z.x.v.w d.d.g.d.d.s.s.s.s.d.OXv.v.c.v.d.v.d.l.l.;.l.l.l.l.z.d.d.j.k.d.h l.s.d.j.j.j.d.j.j.a.K.a.j.f.j.x.j.j.x.l.{.l.d.j.d.l.",
"x.z.z.x.a d.d.d.s.s.d.s.s.d.d.OXz.v.v.d.v.d.l.v.v.'.l.l.l.z.l.z.k.d.d.d.h k.l.d.a.d.d.f.j.j.k.`.d.x.d.j.j.h.j.j.l.}.d.d.d.j.d.",
"@Xx.x.@Xa g.j.g.z.g.f.g.g.f.g.0.q.q.q.@Xf.f.q.g.f.Q.f.j.x.f.f.+Xa.f.f.f.f k.+Xk.+X+X+Xh.x.j.f.F.j.x.j.x.j.x.x.x.l.q.l.l.v.c.v.",
"s.d.d.s.y a.s.y.a.i.s.f.s.s.s.+Xv.z.d.v.d.d.z.s.j.=.s.d.d.d.d.z.d.d.a.d.u d.a.d.d.a.a.a.a.d.a.Z.d.d.x.d.d.d.d.a.d.q.d.l.d.z.s.",
"d.d.j.z.a s.a.a.s.s.s.s.g.s.p.+Xz.c.z.z.h.x.l.j.v._.z.v.l.@Xl.d.d.d.d.k.h k.d.k.d.d.k.d.a.d.d.Z.d.d.a.a.a.d.a.d.z.q.l.l.d.l.d.",
"u s u p a 7 q o e e e u 9 e 8 : x x k k l k & k z d l z k k x k z z l & w @ @ O q O o q @ r q q f q r q q q u u u u s s a u s ",
"s.s.j.s.y s.g.s.g.g.g.s.g.s.d.OXz.z.d.d.s.d.s.d.p.=.d.p.d.p.l.d.d.d.d.d.t s.d.a.a.a.d.j.j.a.d.=.d.a.d.a.d.a.a.a.a.-.u.d.a.a.s.",
"d.j.s.d.y j.j.z.a.s.d.g.s.d.d.0.v.d.v.d.l.d.d.d.d.;.d.d.d.d.d.z.l.l.d.d.t s.a.j.d.j.d.a.a.d.d._.d.d.d.a.a.a.a.a.a.2.d.d.d.d.s.",
"d.g.d.c.p d.s.z.z.d.s.s.s.s.s.OXd.v.v.g.d.d.d.s.d.=.s.l.d.j.l.j.z.l.j.d.u l.s.d.a.a.d.a.a.a.l.K.d.a.j.d.d.d.a.a.d.2.d.d.u.d.s.",
"@X@X@X%Xy $X$X$X$X%X&X<X7X7X6X.X>X>X:X<X:X6X3X3X3X).1X1X4X4X2X2X2X3X6X6X9 4X5X5X7X7X:X7X,X,X7X).:X>X#X#X@X@X@X@X@X4.l.l.z.@X@X",
"y.y.a.y.p s.s.s.a.s.s.y.i.s.i.>.p.p.i.p.s.s.p.s.a.*.p.p.p.y.u.a.y.y.u.y.y u.8.u.e.u.u.%.u.e.t.S.a.s.u.s.u.u.8.e.u.2.e.a.a.u.y.",
"a.u.s.y.s s.s.g.d.s.s.p.s.8.s.0.s.p.p.s.p.s.z.p.d.=.p.p.d.p.a.p.s.t.u.u.y u.a.a.u.a.a.u.u.a.t._ d.u.s.s.d.a.a.d.a.1.u.a.u.a.a.",
"2 c 3 3 0 ; 2 ; 2 , ; : * * $ > 6 4 6 3 3 , 3 < , % 1 1 1 < 1 < ; 2 , = 8 & * = , = = 2 2 T 4 z T c 1 3 2 4 2 2 2 k U 3 c 2 4 ",
"8.y.y.u.p s.p.a.p.s.a.s.g.g.p.;.i.i.i.i.i.i.p.r.t.[ e.e.e.e.e.u.e.e.y.e.q e.e.a.y.y.u.u.u.u.y.] y.y.y.y.y.y.y.u.u.X.y.u.u.w.a.",
"a.u.a.y.a s.y.s.s.s.s.s.s.d.s.:.p.r.p.p.p.u.u.t.t.&.t.e.e.e.t.t.e.u.p.u.s u.y.y.u.u.8.u.a.u.u.K.y.y.u.y.y.u.u.8.y.,.u.u.y.e.u.",
"a.y.y.a.y a.s.s.s.g.s.s.d.g.g.3.p.p.r.p.p.t.t.t.t.&.e.e.e.p.p.y.u.u.y.y.u y.y.y.u.u.a.u.u.u.u.` u.u.s.u.y.y.u.u.u.<.u.e.y.y.a.",
"Z.P.Z.A.a n.F.H.I.I.F.P.Y.P.^.b.F.H.F.P.P.P.P.P.P.W C.T.^.Y.Y.T.V.^.Y.V.y V.F.F.Z.T Z.Z.F.n.Z.T G.G.S.S.J.S.J.J.J.m.E.J.J.U.G.",
"u.s.s.p.0 p.y.y.p.y.s.p.s.i.s.;.p.t.y.p.p.p.a.p.u.{ r.p.y.y.t.y.u.u.w.e.y t.w.y.u.u.@.e.%.e.e.' y.a.y.a.y.u.8.u.t.-.p.p.a.y.u.",
"s.s.s.s.p p.y.p.y.s.s.s.d.s.s.2.t.p.p.p.u.u.s.y.p.{ u.y.p.t.p.t.e.u.u.y.y e.u.u.u.u.w.e.e.w.y._ u.y.a.a.a.y.y.y.r.,.t.p.d.u.s.",
"| | | [ . #.+.%.%.8.8.8.8.8.9.{ O.@.@.%.7.7.y.7.w.{ w.7.8.7.w.7.@.@.w.w.w %.@.@.w.@.O.O.O.o...I &.&.[ ) ) ( ( ( ! 5 ) ) [ { *.",
"p.y.y.y.0 y.r.y.y.i.8.i.s.s.y.*.r.p.p.r.u.e.e.w.t.[ y.e.e.e.w.w.e.w.w.e.9 e.e.8.w.u.u.e.e.e.w./ e.y.u.w.w.u.u.8.y.<.p.y.y.t.y.",
"y.y.t.y.0 w.y.y.i.9.s.i.g.i.i.=.r.y.y.e.w.y.w.w.y.[ t.t.t.u.y.t.y.w.e.y.w w.u.u.%.u.e.@.e.w.w.Z.e.w.e.u.8.u.a.a.i.2.p.y.i.s.t.",
"i.y.y.p.0 y.y.y.a.y.a.s.s.9.p.;.p.p.i.i.i.p.t.y.p.&.t.t.t.t.p.y.t.t.y.t.q e.8.8.u.u.u.8.u.y.u._ w.u.y.a.a.u.y.y.a.<.p.d.p.a.y.",
"Z j Z j p p s A j s Z Z Z Z S H C !.H H H F M m G Z m A A A S Z Z m s y w y h h a h f f j M M j R R R Q Q R R Q Q R S D S m j ",
"y.y.y.y.p w.y.r.8.y.8.y.r.y.y.{ i.i.i.8.y.y.7.r.t.*.e.r.r.w.r.y.y.y.y.y.w e.u.8.8.8.y.@.w.e.e.Y e.w.w.u.w.%.y.y.e.8.w.w.@.w.y.",
"y.8.s.y.p r.w.e.a.a.p.i.s.p.i.Q.i.i.i.i.i.r.p.r.t.[ y.t.y.y.y.y.y.a.y.y.w u.a.a.u.u.y.e.y.e.u.Y e.y.y.8.a.y.a.y.a.y.w.w.w.r.y.",
"8.%.1.$.w $.%.%.8.8.y.8.8.8.8.' X.X.#.$.$.@.%.%.%.{ r.w.8.y.r.y.p.t.y.8.w y.w.8.8.w.w.@.%.@.@.I .. ... .| X. . .| &.%.%.%.%.@.",
"r.7.6.6.q w.6.@.7.r.7.w.7.r.6.] r.r.r.r.r.w.w.w.w.[ r.r.r.r.7.r.w.r.w.w.9 w.6.w.w.w.e.w.e.e.w.I w.w.w.6.w.w.6.7.6.6.6.w.w.6.w.",
"w.7.w.w.u w.w.w.y.8.8.8.8.7.r.Q.r.y.p.e.r.9.r.r.w.| e.r.r.r.7.r.w.w.w.w.u w.w.w.w.w.y.y.w.w.w.Y y.w.e.y.e.@.@.e.w.8.w.e.w.a.@.",
"w.y.w.w.w y.t.y.y.y.y.y.p.i.8.{ i.p.y.p.r.r.r.r.t.&.e.y.y.r.y.e.e.r.t.r.9 w.w.e.w.w.y.t.y.u.w.^ w.w.w.%.e.w.e.y.w.8.w.w.t.y.y.",
"w y q 9 o .   9 9 8 9 o y w q a s b s s a s b s i w y 9 u w q 0 q q 0 q 7 . o w o X 9 9 9 u 8 w u h u f s u f f y u u f a y y ",
"w.7.w.7.i w.w.7.y.y.1.y.y.8.y.S.r.r.y.r.r.e.8.y.e.| w.r.e.e.w.r.y.r.y.t.9 w.r.7.w.y.6.w.7.w.w.I p.w.w.w.w.y.w.%.@.w.w.w.w.w.r.",
"w.w.w.w.u e.7.r.y.y.y.a.y.y.r.D.r.r.i.i.y.p.i.i.p.*.e.e.r.r.y.y.y.p.y.y.9 r.e.y.y.y.y.7.e.6.w.I @.w.e.w.w.w.8.w.e.e.w.8.r.w.a.",
"y.e.y.t.u w.w.y.8.a.a.a.s.y.y.Q.r.r.r.i.y.y.i.p.i.*.y.y.w.t.e.y.r.y.y.y.. e.y.e.u.y.y.w.w.e.e.L e.w.w.w.w.w.w.7.w.p.w.y.t.y.r.",
"%.$.1.$.b 8.8.8.9.q.9.0.0.9.9.H.p.s.8.9.9.8.8.8.8.{ 8.%.$.%.$.$.#.$.#.#.7 #.1.$.1.1.,.O.#.O.#.L y.y.y.y.a.%.%.%.O.@.O.%.8.+.%.",
"w.y.y.t.b y.7.8.r.8.i.i.y.7.y.D.r.r.r.r.w.w.r.w.w.| w.r.w.r.r.r.r.y.p.r.7 y.r.y.w.w.w.w.w.w.w.L 7.w.7.@.@.7.6.6.w.%.w.w.w.7.7.",
"r.r.y.y.u y.8.i.r.8.i.8.8.i.r.D.i.i.r.r.r.r.w.e.t.| r.r.r.y.r.y.p.p.y.i.0 y.y.u.a.y.8.w.w.u.w.L w.y.w.w.e.w.6.@.6.y.6.e.r.r.r.",
"k k ; & 9 t # t # l d t d t t u r u t i g z z B z g 3 c v v v T v v v 3   & & k & : & & & @ & . 0 . . q q 9 r r O O : , > > : ",
"r.r.r.6.b 8.r.7.w.6.7.w.7.7.w.A.e.y.i.8.r.7.r.r.w.| r.6.r.w.r.7.p.r.6.w.o w.w.w.6.w.w.w.7.6.7.I 6.w.w.w.w.7.r.w.r.y.5.r.6.w.w.",
"7.r.r.r.j 7.r.i.8.w.w.w.w.w.y.A.y.8.i.i.r.r.r.7.r.| r.r.r.r.r.w.w.r.6.t.8 e.w.w.w.6.7.r.r.r.w.Y e.w.r.r.w.w.r.y.w.r.6.6.6.6.6.",
"r.i.8.r.s e.r.w.y.y.w.y.8.e.w.G.r.r.i.r.7.r.r.r.e.| r.r.r.w.w.e.r.w.6.t.9 w.w.w.w.7.w.r.w.e.r.Y e.r.7.y.p.y.8.y.r.y.6.r.r.6.r.",
":X5X5X6XN 5X:X;X,X3X-X%X%X%X>XP.&X&X&X>X>X<X<X;X:X1X.X.X.X XoXoXoX X X Xa =X3X=X=X*X2X*X*X1X|.V.$X$X%X$X%X%X%X%X-X;X>X,X-X<X<X",
"w.6.6.6.n w.w.7.w.y.w.w.7.y.w.N.s.r.r.y.y.r.r.r.r.$.6.r.w.w.w.w.7.r.e.w.y w.w.r.r.7.w.6.7.6.w.~ r.7.r.7.7.6.7.6.6.w.6.6.6.w.6.",
"6.6.6.w.b 6.w.w.y.y.w.y.r.y.w.M.i.s.i.p.s.i.r.w.r.1.6.r.r.w.r.r.r.r.r.r.9 w.r.y.e.w.7.w.w.w.r.~ w.r.r.r.w.w.6.6.6.7.6.6.6.w.w.",
"< 1 1 1 w % * % % ; % , , 2 ; d 6 3 , 5 3 4 4 6 v v 5 5 P 5 5 P 5 5 5 - . * ; , ; 1 - , < , ; + * , ; 2 : < ; , < % , 1 < = 1 ",
"w.6.w.6.n w.6.7.w.@.y.7.y.%.8.b.6.r.r.r.r.r.y.r.r.#.r.r.r.r.w.y.r.r.w.r.r 6.6.6.6.6.r.r.w.7.7.I 6.w.w.w.6.7.6.6.6.6.5.6.6.6.6.",
"6.6.w.7.n w.7.8.y.7.y.%.y.7.8.b.r.r.r.r.i.i.i.i.8.0.6.7.r.y.r.e.r.w.r.w.u 6.e.6.r.w.7.w.y.7.r.^ 6.6.w.6.w.w.w.7.6.w.6.6.6.6.6.",
"w.w.7.r.V y.r.r.y.%.y.y.8.r.y.b.r.r.i.i.r.8.i.i.i.0.r.r.a.+Xa.%.w.w.w.w.q e.e.6.w.w.r.r.i.7.r.^ 6.w.e.w.w.w.6.w.7.w.6.6.6.w.w.",
"U.I.H.F.N M.M.F.F.P.F.M.H.N.Y.C M.N.H.H.M.H.U.U.U.I././././.(.T.R.C.I.Y.h N.N.F.C.V.Y.V.Y.N.V.x T.P.P.N.P.Y.R.P.U.P.P.E.I.U.I.",
"7.r.7.7.B 7.7.7.7.w.7.8.8.8.r.^ r.r.i.i.r.r.r.7.r.8.r.q.w.r.r.r.7.r.r.w.u w.6.6.r.w.w.r.7.w.w.~ 6.6.@.8.@.6.6.7.w.e.5.6.6.6.6.",
"6.r.7.7.C y.r.7.8.y.y.8.8.a.8.b.r.r.p.r.r.r.6.r.r.8.r.r.r.6.r.y.i.y.y.r.q r.6.w.7.r.e.y.y.r.r.I 7.w.w.w.e.7.w.w.6.w.6.6.w.6.w.",
"+.8.%.+.N -...X.#.,.<.2.-.-.>.~ 9.9.9.8.i.7.} 7.7.0.7.7.7.7.7.7.9.8.r.w.9 8.7.@.7.7.8.8.7.8.7.P O.+.@.@.@.O.O.O.O.%.+.O.+.O.o.",
"y.i.y.s.b p.p.p.s.p.s.p.d.s.s.^ p.p.p.r.i.i.i.r.7.X.6.r.r.6.r.t.r.r.r.w.9 e.e.y.w.y.y.y.y.y.r.~ e.u.a.8.e.u.w.a.u.u.w.e.w.y.y."
};
