/* XPM */
static char *_cb38bef602f43de8373b47a02a98879cvdhAjRWRzrlqkJv[] = {
/* columns rows colors chars-per-pixel */
"62 63 210 2 ",
"   c #3A321A",
".  c #312F20",
"X  c #363325",
"o  c #3B3625",
"O  c #3A372C",
"+  c #3D3A2D",
"@  c #3E3C33",
"#  c #3E3E3C",
"$  c #413C2A",
"%  c #423E34",
"&  c #423D38",
"*  c #4A4728",
"=  c #48452D",
"-  c #524F2A",
";  c #5B562A",
":  c #444234",
">  c #4C4833",
",  c #45443C",
"<  c #49453C",
"1  c #4B4A3D",
"2  c #534E39",
"3  c #5B5634",
"4  c #56503D",
"5  c #5B5839",
"6  c #675A2E",
"7  c #635B34",
"8  c #635B38",
"9  c #69632E",
"0  c #746A2B",
"q  c #6C6332",
"w  c #6B653A",
"e  c #7A6D33",
"r  c #756A39",
"t  c #464442",
"y  c #4B4642",
"u  c #494845",
"i  c #4D4B44",
"p  c #4C4C4A",
"a  c #524D45",
"s  c #594F47",
"d  c #524D4A",
"f  c #4F5046",
"g  c #4F504A",
"h  c #535145",
"j  c #595647",
"k  c #54524C",
"l  c #5A554C",
"z  c #5D594E",
"x  c #555452",
"c  c #595652",
"v  c #575952",
"b  c #5C5A54",
"n  c #5D5C5A",
"m  c #665D4B",
"M  c #615D55",
"N  c #6A5F51",
"B  c #625E5B",
"V  c #5E615A",
"C  c #656256",
"Z  c #64625C",
"A  c #6A655C",
"S  c #66685B",
"D  c #6C685E",
"F  c #756A5B",
"G  c #7A6D5C",
"H  c #7E7156",
"J  c #5D5A61",
"K  c #615F60",
"L  c #5E6061",
"P  c #646462",
"I  c #6A6662",
"U  c #676962",
"Y  c #6C6964",
"T  c #6D6B6A",
"R  c #716B64",
"E  c #716E6A",
"W  c #7C7363",
"Q  c #71706E",
"!  c #7E7468",
"~  c #736E70",
"^  c #767779",
"/  c #867527",
"(  c #857A33",
")  c #847738",
"_  c #827664",
"`  c #82766B",
"'  c #887768",
"]  c #867B6B",
"[  c #8B7F6D",
"{  c #837C75",
"}  c #99892D",
"|  c #968637",
" . c #9E9036",
".. c #A2922C",
"X. c #AB982C",
"o. c #A18D3C",
"O. c #A99B37",
"+. c #A49239",
"@. c #B29A31",
"#. c #B6A22C",
"$. c #BAA42B",
"%. c #AFA030",
"&. c #BAA535",
"*. c #C3A51E",
"=. c #DCBE1E",
"-. c #E0BF10",
";. c #D5B624",
":. c #DCBD24",
">. c #D2B62A",
",. c #D5BA2C",
"<. c #DEBE2A",
"1. c #C0AA34",
"2. c #CEB936",
"3. c #D2BA35",
"4. c #D1B93A",
"5. c #E1BF24",
"6. c #E1BE29",
"7. c #E1BE33",
"8. c #DEC417",
"9. c #DEC11C",
"0. c #E1C113",
"q. c #E3C41D",
"w. c #E8C61F",
"e. c #E4C91F",
"r. c #DEC123",
"t. c #D7C32F",
"y. c #DEC22A",
"u. c #DFC432",
"i. c #E4C525",
"p. c #E8C624",
"a. c #E5C926",
"s. c #E9C926",
"d. c #E4C52B",
"f. c #E8C72A",
"g. c #E6C92B",
"h. c #E9CA2B",
"j. c #E5C632",
"k. c #E8C631",
"l. c #E6C933",
"z. c #E9CB35",
"x. c #E8CC37",
"c. c #EACD36",
"v. c #ECCD36",
"b. c #E5C63B",
"n. c #E6CA39",
"m. c #E7CB39",
"M. c #E6C93A",
"N. c #E6CA3D",
"B. c #E9CA39",
"V. c #E9CA3A",
"C. c #EACB3A",
"Z. c #EACC38",
"A. c #EACD3A",
"S. c #EACB3C",
"D. c #E9CD3D",
"F. c #ECCD3D",
"G. c #F1CD3D",
"H. c #EAD135",
"J. c #ECD13B",
"K. c #F0D639",
"L. c #988049",
"P. c #8D836A",
"I. c #978766",
"U. c #9F906F",
"Y. c #8D8473",
"T. c #8E817D",
"R. c #948776",
"E. c #A99869",
"W. c #B19E6C",
"Q. c #A49474",
"!. c #A89878",
"~. c #B09F74",
"^. c #BDA96D",
"/. c #B3A272",
"(. c #BCA972",
"). c #DABC40",
"_. c #C3AE6D",
"`. c #D0BA7A",
"'. c #E4C542",
"]. c #E7CA42",
"[. c #EACC44",
"{. c #E8CB4C",
"}. c #EED347",
"|. c #F0D34A",
" X c #F2D94A",
".X c #ECD151",
"XX c #EFD95A",
"oX c #F0D353",
"OX c #F5DA53",
"+X c #F8DF56",
"@X c #F2D65E",
"#X c #F9DD5C",
"$X c #DBC678",
"%X c #EFD66F",
"&X c #F4DB63",
"*X c #F5D867",
"=X c #F9DB65",
"-X c #E1CC7E",
";X c #EAD377",
":X c #F3D976",
">X c #F6DB74",
",X c #F2DA78",
"<X c #FBE16C",
"1X c #FCE27A",
"2X c #848287",
"3X c #85858C",
"4X c #9A8E86",
"5X c #A89984",
"6X c #B0A18F",
"7X c #B2A394",
/* pixels */
"d.j.k.d.n k.j.k.l.M.l.Z.Z.M.z.h.h.h.a.a.p.s.s.f.s.Z a.d.f.d.s.h.h.h.k.a.s.k.d.d.d.d.d.k.d.d.v d.d.j.k.j.d.d.d.d.i.s.f.d.d.d.",
"B B K B x c v v c v n v b v P n Y T T Q Y P P n B M Z Z B A P I B v k k c x B M b b B n I B d B Z Y P R R I R K R A R E I A ",
"B.M.B.x.p M.N.M.m.N.M.l.].M.M.J.D.B.x.N.Z.x.D.Z.B.v F.M.D.D.D.B.Z.M.B.J.D.N.[.D.S.B.B.j.B.B.c v.x.x.B.B.S.S.B.S.Z.Z.B.B.B.B.",
"{.D.D.Z.c Z.D.N.N.M.B.v.S.M.x.D.J.Z.D.J.Z.D.Z.Z.Z.Z D.F.D.D.Z.Z.Z.Z.Z.C.Z.F.B.D.B.S.S.v.B.Z.A F.B.S.B.v.S.S.S.S.G.x.F.B.B.B.",
"D.x.D.v.n B.v.v.x.x.z.x.Z.Z.H.x.J.H.J.J.H.H.H.H.J.z M.J.v.D.Z.x.x.x.Z.J.J.x.S.S.Z.M.B.M.x.x.x Z.l.M.k.M.S.S.S.S.v.F.v.S.l.{.",
"x.x.v.x.k l.z.x.m.k.z.z.x.v.x.x.x.Z.l.m.M.f.x.l.l.S Z.D.N.Z.x.x.B.x.x.f.z.v.B.x.l.F.l.x.x.x.y j.x.D.l.x.l.M.N.x.v.h.z.f.f.z.",
"x.x.Z.Z.l B.x.B.Z.M.m.m.Z.z.x.v.x.Z.H.m.Z.x.x.x.H.V Z.Z.Z.B.B.x.l.x.B.x.x.B.x.x.l.l.l.l.f.k.& B.x.x.l.l.B.M.B.S.v.v.x.x.Z.Z.",
"S.x.N.Z.h B.B.D.D.m.Z.x.x.z.x.J.J.J.J.x.Z.Z.H.v.x.S ].D.D.Z.F.v.F.x.v.x.v.x.B.x.x.v.B.B.B.Z.i v.x.x.B.Z.Z.B.[.M.G.v.z.x.x.x.",
"l a g x b x x u p , @ u u x k l k 1 x z v v h k p x Z k n Z v f B P B k C k d a c a d k k Z P T 2X3X^ E ~ ^ T 2X2Xv P Y n V ",
"S.M.m.M.x k.l.M.M.l.M.j.l.l.h.B.M.M.l.x.F.M.l.Z.x.Z F.x.l.x.M.l.x.x.k.x.z.k.l.l.x.l.l.l.l.z.p v.j.v.B.S.B.v.S.F.k.x.z.x.l.z.",
"Z.Z.D.Z.d x.f.x.M.h.B.g.h.f.l.m.J.J.F.x.x.x.x.l.x.S x.Z.x.x.x.x.x.j.x.v.x.x.x.l.x.x.l.M.x.x.k x.x.S.S.B.S.B.B.x.z.z.z.h.k.M.",
"Z.D.m.[.d Z.B.x.v.z.x.x.x.x.x.Z.H.J.J.v.x.x.F.H.v.U v.Z.H.Z.H.M.B.v.v.J.z.z.k.l.j.j.M.M.l.k.L x.x.j.B.B.B.C.b.x.v.v.x.v.'.x.",
"Z.h.j.x.d k.d.d.d.d.h.g.j.g.l.H.M.x.z.z.z.h.f.l.z.b z.z.Z.f.x.x.x.x.f.d.f.x.z.x.x.x.j.d.k.g.J s.f.k.x.f.f.h.z.h.s.s.h.x.z.H.",
"l.l.x.x.l M.j.d.l.f.j.M.B.l.l.Z.M.m.x.x.x.x.B.l.z.z z.x.x.x.x.j.f.x.Z.f.j.f.z.j.j.x.j.j.f.j.k x.Z.[.j.k.k.F.x.v.H.v.x.f.l.h.",
"x.B.B.B.b l.j.k.k.j.M.g.l.l.g.M.D.J.Z.Z.v.Z.x.x.v.k v.v.v.x.v.z.v.x.k.x.x.B.B.x.k.G.x.z.l.l.a x.f.G.k.B.B.x.j.x.v.v.v.x.B.l.",
"d k , a c % y , v k p 1 p h i < f 1 1 1 1 < d a h z z c c j l z l a a , d c y s 2 % % a a a 1 n p s & y % d y M n Z Y F n h ",
"l.l.l.j.k l.M.M.M.l.M.l.k.f.x.z.m.l.m.m.x.x.k.f.x.b z.z.h.x.j.x.l.Z.k.f.f.j.k.k.b.k.B.j.x.k.l l.k.B.l.j.j.d.j.j.k.h.f.d.x.j.",
"l.x.M.x.d B.B.l.M.l.m.m.l.x.z.v.Z.J.x.m.B.f.x.x.x.M z.v.v.x.v.x.Z.Z.B.x.x.Z.S.f.j.B.j.j.k.x.x k.x.j.j.l.j.h.j.B.x.x.B.h.z.k.",
"x.l.x.'.d Z.x.Z.x.l.B.k.l.l.x.x.v.x.x.H.x.x.k.x.v.v x.v.x.Z.j.x.Z.Z.j.x.j.v.x.z.z.k.F.B.v.k.< B.j.x.l.j.j.j.k.k.p.x.z.z.j.z.",
"i.j.i.d., d.l.l.k.l.J.N.}.|..XH.J.F.}.}.oX@XoXOX@Xa 1X>X=X=X=X=X=X#X=X=X=X@XoX.X{.{.[.{.'.'.P S.x.j.j.d.d.h.d.g.q.q.i.i.d.d.",
"d.d.d.j.p l.l.l.k.l.l.l.l.l.g.h.h.x.h.l.x.h.s.h.h.M x.h.h.d.d.s.h.h.d.p.d.g.k.g.h.j.6.d.6.f.< k.d.k.g.j.j.d.d.f.i.h.d.f.d.j.",
"j.j.h.d.x k.m.l.k.l.l.l.l.g.g.h.h.h.g.l.f.h.F.f.f.M h.k.v.x.h.x.k.k.f.f.f.f.k.f.h.d.d.d.k.f.< B.x.f.l.j.k.k.j.d.f.h.j.f.j.d.",
"O , O % , # O X O X X + + o   > 3 5 8 8 w r r e e t +.o.| ) ) ) r e 6 6 7 r 6 8 7 8 3 3 3 8 x 2 2 @ % @ , $ O % O % & & : O ",
"B.g.g.j.i g.j.l.g.l.j.l.M.l.g.a.h.h.h.k.g.i.g.d.f.a s.p.f.p.d.h.f.d.h.p.p.d.d.f.6.g.d.d.g.d.p 6.f.k.d.i.6.f.6.d.p.f.g.h.d.j.",
"j.d.j.d.d k.k.k.x.l.l.l.M.x.H.a.h.h.a.d.f.g.f.p.f.M s.p.f.g.i.p.g.s.h.i.i.f.i.d.h.d.d.d.j.d.y d.g.d.g.d.d.d.d.d.f.f.f.p.d.f.",
"d.d.g.j.x j.j.l.M.u.l.l.M.l.l.g.h.h.s.d.p.s.s.h.p.Z p.i.p.f.h.h.h.i.g.d.h.h.f.f.d.d.j.j.j.d.c d.d.j.f.k.d.d.6.f.d.p.d.d.d.d.",
"`.`.`._.v I.U.R.P.P.! Y.{ { { ^.(./.E.!.U.[ [ ` ` z W ] ] Y._ ! ` _ G N G H P.[ I.E.~.(.^._.d ;X;X;X;X;X,X:X,X:X,X$X-X$X$X$X",
"d.j.x.f.i h.g.g.g.l.l.g.j.g.l.a.s.h.g.f.d.g.f.a.h.M i.d.d.d.d.d.f.d.i.i.i.g.i.d.i.6.i.i.i.i.l i.y.j.y.g.d.d.d.d.f.h.a.d.d.d.",
"g.x.f.x.p g.i.h.f.l.g.b.z.d.x.h.h.d.h.h.f.h.h.d.h.l f.h.h.f.d.s.d.d.f.p.p.d.d.f.d.i.i.d.p.i.c f.k.k.h.d.d.d.d.d.f.h.h.h.h.f.",
"1.$.1.#.< ,.:.g.y.g.g.g.j.d.d.>.:.:.:.i.i.i.d.i.d.b i.a.i.i.i.i.i.i.i.i.i.6.i.5.5.5.6.;.;.>.& &.$.#.@.X...} ..( / X.@.#.&.1.",
"f.g.d.d.p d.d.d.y.g.g.g.g.u.a.a.a.h.a.d.i.f.f.f.a.l i.s.d.f.p.d.p.i.i.d.i.d.d.i.p.p.6.d.i.d.l i.d.d.d.d.d.d.h.d.g.g.g.j.g.j.",
"d.d.i.d.i d.i.d.M.j.u.u.j.g.k.s.a.a.d.f.d.p.i.i.i.Y p.f.s.f.i.i.d.i.f.i.j.f.d.d.6.d.i.5.5.p.x f.i.i.d.d.k.d.k.d.g.g.g.g.k.g.",
"j.g.f.g.t d.d.k.r.j.j.j.l.u.g.h.a.a.h.d.a.f.h.d.i.d d.s.h.d.h.d.d.d.h.p.d.p.d.d.d.d.d.d.i.i.d f.d.d.d.d.d.k.d.j.f.i.x.h.d.d.",
"B v B P n n v A n n U Z U Z Y D C n n R Y b T I S c Y S I E Y Z Y b c c x x c d c c d c B B l T M M I E B I P K A Y C B n k ",
"d.d.g.y.n i.d.i.d.d.y.y.y.a.a.g.g.g.d.d.d.d.i.p.d.l i.i.d.i.d.d.d.d.d.i.f.d.d.d.d.d.6.d.i.i.n i.i.g.d.y.g.d.d.i.i.p.i.i.i.d.",
"d.g.d.d.x a.r.d.d.j.k.h.g.d.g.g.g.g.g.a.d.d.i.f.i.I s.f.h.d.d.d.h.j.a.d.d.k.d.h.d.d.d.i.f.d.b f.i.d.d.d.d.d.j.d.f.i.i.i.d.d.",
"u.g.d.d.k i.y.i.d.j.d.d.g.g.g.d.h.a.a.s.s.d.a.s.h.C s.h.h.d.h.h.k.k.p.s.h.s.s.f.p.p.f.i.p.p.d i.d.d.:.i.d.d.d.<.i.d.i.i.d.d.",
"d.i.i.i.i :.i.i.d.r.q.i.r.q.8.a.d.g.d.i.d.i.i.e.i.M i.i.i.d.i.i.e.i.q.e.p.f.q.q.q.q.e.i.q.q.l i.i.i.g.i.i.i.i.p.q.i.i.i.i.i.",
"i.i.i.5.k d.i.i.<.d.d.<.y.i.i.a.h.a.i.d.i.7.a.i.i.l a.a.d.i.i.d.i.i.i.a.p.i.i.i.i.d.d.i.i.i.k i.i.d.6.:.:.g.5.i.q.p.i.i.j.r.",
"d.i.i.i.k d.d.d.d.d.y.d.d.i.i.h.s.h.h.a.a.s.a.a.p.z a.a.p.d.a.s.i.f.p.p.w.i.i.5.i.d.d.d.d.i.s i.i.d.i.d.i.i.i.i.p.p.i.d.d.i.",
"a k p d , : + , , t u 1 u v > n V Z B M k n v v l i k k l h p h k p u < < , i s < y < < d i < d c x d c d v c l M h k g h h ",
"5.i.i.5.p i.i.r.d.j.d.u.y.d.r.a.i.d.7.i.i.d.d.d.i.a i.i.i.i.i.y.d.a.i.d.i.i.d.i.6.i.5.f.i.i.t d.d.i.i.d.6.i.5.5.i.i.i.:.r.i.",
"i.i.i.i.k i.i.i.d.d.j.j.d.d.a.a.a.a.d.d.d.a.h.g.s.b a.i.i.g.d.g.a.h.h.d.s.d.d.d.d.d.d.i.5.i.y i.i.5.i.i.i.5.g.5.i.i.y.d.i.b.",
"i.p.d.d.d a.i.i.y.j.j.j.a.g.d.g.s.a.g.a.a.d.h.d.h.m a.a.i.d.g.g.g.g.a.a.a.p.p.h.d.i.i.5.p.i.% d.p.5.i.i.g.i.d.i.i.q.g.g.a.d.",
"q.i.i.q.V i.q.i.a.g.a.l.g.a.a.e.i.a.q.q.q.q.q.q.q.C i.a.a.a.a.a.d.h.a.j.e.i.i.d.r.6.i.6.-.-.& i.q.-.q.q.q.0.-.=.-.-.p.p.q.q.",
"i.i.a.d.u d.i.d.r.y.y.g.u.a.a.a.a.i.a.a.i.i.a.i.i.M i.i.a.r.i.i.i.u.d.i.i.d.d.i.i.d.i.i.d.i.% 6.6.i.5.6.i.5.-.q.-.s.i.i.i.i.",
"i.d.d.d.v g.u.g.g.d.g.j.d.a.r.g.d.s.a.s.a.i.a.i.i.l a.i.d.a.i.d.g.g.d.a.i.a.d.d.d.d.d.d.d.6., i.f.5.i.i.i.5.5.i.p.e.i.i.i.i.",
", > h f z v , , @ p @ , , 1 i h c M l j l j l b b i i k g > , 1 u 1 i X . % : : < @ & O & @ p p y t y a x b p l h l a y x : ",
"i.i.r.i.S y.d.y.i.:.i.6.r.=.i.a.i.d.y.y.a.a.d.r.i.l a.a.r.d.i.q.r.a.i.q.7.i.q.i.i.i.i.i.r.i.< i.i.i.i.i.d.i.r.i.a.q.i.q.i.q.",
"a.i.e.a.Z i.i.j.d.r.i.i.i.d.a.a.a.d.g.a.a.r.a.a.q.n i.a.a.a.i.i.i.i.e.i.i.p.i.i.i.r.r.i.i.i.p i.i.i.i.i.i.i.d.i.w.q.w.q.e.e.",
"y.d.y.a.b i.i.i.d.d.i.a.d.i.i.h.a.g.a.r.a.a.a.r.i.Z i.p.a.i.i.i.q.q.a.i.i.i.i.i.r.i.i.d.a.i.t a.i.a.d.a.y.a.d.a.i.w.e.i.i.i.",
"}.}. X}.v J.Z.M.S.N.j.a.d.d.a.d.a.H.H.H.H.H.J. X+XE =X*X>X:X:X,X%X&X&XXXXX X XOXOXOX+X+X+X#XU e.9.a.9.a.a.a.g.g.H.H.h.h.K.v.",
"i.q.q.q.k i.a.r.i.i.y.r.:.i.g.g.g.a.d.d.d.a.i.a.e.v a.e.i.q.a.d.a.i.r.a.i.i.i.r.i.r.i.r.r.d.n i.d.i.i.i.r.r.q.9.w.e.e.q.q.q.",
"q.q.q.i.k i.i.i.i.i.d.i.i.g.i.a.g.g.g.g.k.a.a.i.e.v i.i.a.i.r.d.a.d.a.a.i.a.h.a.i.a.i.i.i.r.k q.a.a.i.i.a.q.i.e.q.e.i.e.e.i.",
"w q 9 7 i ; 3 - > > , @ $ + X 2 4 2 5 w w w r e e h  . .O.X.%.%.O.O.....0 ) ) ( L.( ( ) ( e u * * = > > h h 3 3 3 * 5 7 7 9 ",
"q.e.q.i.g y.i.r.y.r.r.:.d.i.i.a.a.a.a.a.a.a.d.a.a.v a.g.r.a.a.d.d.a.e.q.q.q.i.8.9.q.r.i.r.9.k i.r.r.i.r.q.q.9.q.0.-.q.q.q.e.",
"e.q.i.r.x i.d.j.<.i.d.:.y.y.r.s.e.a.a.a.a.a.g.g.u.n a.a.d.a.a.i.i.a.a.q.e.i.e.p.q.i.i.r.i.i.x q.q.i.9.i.5.i.i.i.-.p.-.i.q.q.",
"i.i.d.i.n y.i.r.d.r.i.y.y.y.r.a.a.a.a.d.g.l.u.g.a.v a.a.'.j.a.a.a.r.i.i.i.i.e.i.i.d.i.d.i.d.t 9.q.i.i.i.p.p.5.5.5.i.w.q.q.i.",
"5X4XY.5XJ Q.Q.!.U.Q.Q.Q.!.Q.U./.E.W././.E././.7X/.Q Y.Y.Y.P.] ! [ m [ ! G W F W ! ! ` A ! A Z R._ ' ` W 2XT.` T.4X5X6X5X5X7X",
"9.i.r.r.J d.y.r.y.r.y.i.y.y.y.a.a.g.a.d.a.a.i.9.i.b i.j.q.i.e.j.i.i.i.i.q.i.q.5.i.i.i.i.i.i.i i.i.q.6.i.-.i.i.q.d.-.q.q.i.=.",
"i.i.r.d.P r.r.d.d.j.g.d.).u.g.g.a.H.h.a.a.a.a.a.d.v i.i.i.a.a.j.d.g.a.i.e.i.i.i.a.i.a.d.d.a.u i.i.-.5.i.i.i.i.;.:.q.q.=.i.i.",
"r.y.<.<.v ,.>.,.2.,.3.3.4.2.2.t.u.t.u.r.g.t.9.q.d.p i.j.i.i.i.i.u.y.i.d.h.i.i.=.a.y.y.d.e.r.# i.<.6.5.6.-.<.6.6.d.:.=.d.:.*.",
"d.d.j.d.x h.d.d.d.g.k.k.M.k.j.a.g.h.g.H.g.i.g.a.d.a i.i.a.i.i.s.a.s.d.p.d.i.d.d.d.d.d.d.g.g.p a.d.j.d.d.d.j.7.d.r.i.i.i.d.d."
};
